<svg width="93" height="51" viewBox="0 0 93 51" fill="none" xmlns="http://www.w3.org/2000/svg">
<path d="M61.4167 24.589C61.386 38.6227 51.0025 48.8681 36.6927 48.8681H30.8492V39.7577H36.6927C45.7725 39.7577 52.1222 33.4847 52.1375 24.5737C52.1222 15.6473 45.7725 9.43562 36.6927 9.43562H30.8492V0.325195H36.6927C51.0025 0.325195 61.386 10.5092 61.4167 24.543V24.589ZM61.4013 9.05219H72.567C75.9412 9.05219 78.2111 9.74237 79.8522 11.3375C81.3553 12.7792 82.1222 14.6964 82.1222 16.8436C82.1222 21.7516 77.8124 24.6657 73.0118 24.6657H70.2203L66.9535 31.5982L85.205 50.1872L92.3062 44.3283L79.3768 31.5215C86.524 30.2178 91.4013 23.7915 91.4013 17.043C91.4013 11.9816 89.9443 8.08593 86.2633 4.69636C82.4596 1.18409 78.2265 0.325195 71.8615 0.325195H61.4013V9.05219ZM31.1099 19.727H10.3124V0.325195H0.297028V48.8681H10.3124V29.4356H31.1099V19.727Z" fill="white"/>
</svg>
