<svg width="173" height="173" viewBox="0 0 173 173" fill="none" xmlns="http://www.w3.org/2000/svg">
<path d="M172.862 86.5316C172.862 134.248 134.192 172.929 86.4899 172.929C38.7882 172.929 0.118256 134.248 0.118256 86.5316C0.118256 38.8154 38.7882 0.133789 86.4899 0.133789C134.192 0.133789 172.862 38.8154 172.862 86.5316Z" fill="url(#paint0_angular_1_138)"/>
<path d="M162.828 88.2069C163.8 88.2595 164.327 88.8935 164.281 89.7423C164.236 90.5736 163.68 91.035 162.775 90.986L158.741 90.7678L158.655 92.3516L162.934 92.583C164.557 92.6708 165.513 91.801 165.588 90.4054C165.644 89.3728 165.211 88.6913 164.467 88.3394L164.471 88.2607L167.853 88.4436L167.937 86.8948L158.976 86.4102L158.891 87.994L162.828 88.2069Z" fill="black"/>
<path d="M158.054 96.6719C157.876 97.7128 158.258 98.4182 158.766 98.7985L158.757 98.8503L157.846 98.6945L157.589 100.197L162.029 100.957C163.782 101.257 164.554 99.9172 164.77 98.6518C165.008 97.2568 164.57 96.0794 163.419 95.527L162.963 96.9514C163.389 97.1844 163.703 97.6914 163.572 98.4558C163.448 99.1814 163.009 99.5152 162.357 99.4037L162.331 99.3993C161.882 99.3224 161.94 98.848 162.015 97.6561C162.097 96.3455 161.923 95.0489 160.429 94.7933C159.125 94.5702 158.27 95.4065 158.054 96.6719ZM159.133 97.2744C159.245 96.6222 159.623 96.2068 160.197 96.305C160.797 96.4077 160.959 96.9731 160.938 97.6898C160.924 98.1096 160.888 98.948 161.017 99.179L160.235 99.0453C159.497 98.919 158.973 98.2159 159.133 97.2744Z" fill="black"/>
<path d="M161.904 110.567L162.376 108.948L158.01 106.059L158.03 105.992L163.262 105.906L163.735 104.282L156.604 104.7L156.113 106.382L161.904 110.567Z" fill="black"/>
<path d="M153.502 113.61C152.891 115.054 153.177 116.346 154.146 117.06L154.876 115.761C154.435 115.341 154.365 114.741 154.631 114.111C155.031 113.167 155.916 112.804 156.983 113.241L155.157 117.559L155.605 117.749C157.78 118.669 159.289 117.766 159.934 116.241C160.685 114.465 159.871 112.755 157.959 111.946C156.014 111.123 154.292 111.741 153.502 113.61ZM157.966 113.662C158.738 114.041 159.156 114.908 158.788 115.779C158.433 116.619 157.581 116.924 156.734 116.575L157.966 113.662Z" fill="black"/>
<path d="M153.007 129.377L153.719 128.257L155.079 129.123L155.931 127.784L154.57 126.919L155.083 126.113L154.048 125.454L153.535 126.26L150.379 124.251C149.315 123.563 148.297 124.006 147.686 125.03C147.455 125.418 147.362 125.728 147.319 125.902L148.508 126.343C148.537 126.257 148.6 126.084 148.706 125.918C148.92 125.581 149.21 125.387 149.749 125.73L152.684 127.598L151.972 128.718L153.007 129.377Z" fill="black"/>
<path d="M145.672 128.266L144.72 129.535L150.104 133.574L151.055 132.305L145.672 128.266ZM151.341 133.516C151.039 133.919 151.1 134.48 151.478 134.764C151.86 135.051 152.416 134.953 152.718 134.549C153.023 134.143 152.962 133.582 152.58 133.295C152.201 133.011 151.646 133.109 151.341 133.516Z" fill="black"/>
<path d="M143.294 131.739L142.214 132.901L145.21 135.688C145.817 136.252 145.851 137.038 145.386 137.539C144.93 138.03 144.286 138.06 143.779 137.588L140.603 134.634L139.544 135.773L142.617 138.632C143.172 139.148 143.25 139.837 142.728 140.398C142.292 140.867 141.671 140.983 141.061 140.416L137.933 137.506L136.85 138.671L140.158 141.748C141.258 142.771 142.433 142.679 143.274 141.774C143.939 141.058 144.093 140.184 143.748 139.456L143.795 139.405C144.53 139.734 145.317 139.576 145.935 138.911C146.549 138.25 146.669 137.44 146.298 136.712L146.352 136.654L147.189 137.433L148.221 136.323L143.294 131.739Z" fill="black"/>
<path d="M133.092 141.763C131.88 142.758 131.533 144.035 132.058 145.117L133.309 144.306C133.113 143.73 133.331 143.166 133.859 142.732C134.651 142.081 135.604 142.172 136.345 143.055L132.722 146.029L133.03 146.405C134.528 148.231 136.284 148.133 137.564 147.082C139.054 145.859 139.129 143.967 137.811 142.362C136.472 140.729 134.66 140.476 133.092 141.763ZM137.02 143.884C137.528 144.579 137.495 145.541 136.764 146.141C136.059 146.719 135.163 146.594 134.575 145.891L137.02 143.884Z" fill="black"/>
<path d="M125.295 155.503L126.446 154.841L127.25 156.238L128.625 155.446L127.82 154.049L128.648 153.572L128.036 152.509L127.208 152.986L125.341 149.743C124.717 148.641 123.609 148.561 122.594 149.187C122.209 149.423 121.984 149.654 121.864 149.789L122.714 150.73C122.779 150.668 122.915 150.544 123.086 150.445C123.431 150.246 123.779 150.208 124.098 150.763L125.834 153.777L124.683 154.44L125.295 155.503Z" fill="black"/>
<path d="M116.915 152.104C115.117 152.912 114.543 154.693 115.397 156.591C116.252 158.494 117.966 159.251 119.764 158.442C121.562 157.633 122.134 155.848 121.279 153.946C120.425 152.048 118.713 151.295 116.915 152.104ZM117.428 153.266C118.423 152.819 119.309 153.487 119.814 154.61C120.319 155.733 120.235 156.851 119.24 157.299C118.261 157.739 117.37 157.059 116.865 155.936C116.36 154.813 116.449 153.706 117.428 153.266Z" fill="black"/>
<path d="M106.94 153.489L105.398 153.863L106.243 157.346L106.179 157.361C105.821 156.943 105.152 156.398 104.028 156.671C102.487 157.045 101.629 158.547 102.152 160.701C102.681 162.882 104.156 163.777 105.667 163.41C106.821 163.13 107.134 162.319 107.254 161.79L107.343 161.768L107.605 162.85L109.121 162.482L106.94 153.489ZM106.816 159.578C107.124 160.847 106.779 161.801 105.786 162.042C104.76 162.291 104.021 161.546 103.725 160.329C103.428 159.102 103.747 158.078 104.765 157.831C105.748 157.592 106.509 158.309 106.816 159.578Z" fill="black"/>
<path d="M99.2718 157.857L97.701 158.076L98.2477 161.995C98.3658 162.841 97.8115 163.529 96.9479 163.649C96.6832 163.686 96.3468 163.685 96.2062 163.66L96.4078 165.105C96.5546 165.111 96.8044 165.094 96.978 165.07C97.7417 164.963 98.3191 164.44 98.4543 163.634L98.5237 163.624L98.6787 164.735L100.202 164.522L99.2718 157.857Z" fill="black"/>
<path d="M90.3391 158.704C88.7717 158.764 87.7242 159.572 87.4892 160.752L88.9754 160.861C89.168 160.284 89.6819 159.966 90.3649 159.939C91.3894 159.9 92.0941 160.548 92.1517 161.699L87.4669 161.88L87.4857 162.366C87.5768 164.726 89.0354 165.708 90.6904 165.644C92.6168 165.57 93.8188 164.107 93.7387 162.032C93.6572 159.922 92.3663 158.625 90.3391 158.704ZM92.1885 162.767C92.1735 163.627 91.5665 164.374 90.6208 164.411C89.7101 164.446 89.0715 163.804 89.0274 162.889L92.1885 162.767Z" fill="black"/>
<path d="M80.2491 163.074L84.2791 163.354L84.3696 162.052L80.3396 161.771L80.2491 163.074Z" fill="black"/>
<path d="M74.9859 157.897C73.0437 157.557 71.5701 158.709 71.2116 160.759C70.8523 162.814 71.8467 164.402 73.7889 164.742C75.731 165.082 77.2054 163.925 77.5647 161.871C77.9232 159.821 76.9281 158.237 74.9859 157.897ZM74.7584 159.147C75.8331 159.335 76.1921 160.385 75.98 161.598C75.7679 162.811 75.0715 163.69 73.9968 163.502C72.9394 163.317 72.5827 162.253 72.7948 161.041C73.0069 159.828 73.701 158.962 74.7584 159.147Z" fill="black"/>
<path d="M69.5212 156.98L67.9935 156.554L66.93 160.364C66.7004 161.187 65.9175 161.597 65.0777 161.362C64.8203 161.29 64.5125 161.154 64.3934 161.075L64.0013 162.481C64.1334 162.545 64.3693 162.629 64.5381 162.676C65.2808 162.884 66.0189 162.635 66.4649 161.95L66.5324 161.968L66.2309 163.049L67.7122 163.462L69.5212 156.98Z" fill="black"/>
<path d="M61.4673 154.378C60.3906 153.955 59.654 154.405 59.2423 154.771L59.1526 154.736L59.5398 153.748L58.0879 153.178L54.8107 161.532L56.2912 162.113L57.517 158.989L57.5781 159.013C57.6248 159.554 57.8249 160.399 58.9302 160.833C60.378 161.402 61.9608 160.714 62.7801 158.626C63.5898 156.562 62.9438 154.958 61.4673 154.378ZM60.5802 155.428C61.5549 155.81 61.7328 156.869 61.2719 158.043C60.8143 159.21 59.9805 159.848 58.9976 159.462C58.0473 159.089 57.8341 158.097 58.3109 156.881C58.7878 155.666 59.638 155.058 60.5802 155.428Z" fill="black"/>
<path d="M53.4967 150.849C52.1123 150.111 50.8007 150.281 50.0034 151.182L51.2323 152.025C51.6894 151.623 52.2935 151.608 52.8968 151.929C53.8017 152.411 54.084 153.326 53.5541 154.349L49.4163 152.145L49.1877 152.574C48.078 154.659 48.843 156.243 50.3047 157.022C52.0062 157.928 53.7811 157.27 54.7571 155.437C55.7495 153.573 55.2872 151.802 53.4967 150.849ZM53.0478 155.291C52.6018 156.026 51.7013 156.366 50.866 155.921C50.0616 155.492 49.8332 154.616 50.2558 153.804L53.0478 155.291Z" fill="black"/>
<path d="M48.631 148.308L47.312 147.427L45.1157 150.718C44.6414 151.429 43.7701 151.574 43.045 151.09C42.8228 150.942 42.5726 150.717 42.484 150.605L41.674 151.818C41.7797 151.92 41.9776 152.074 42.1234 152.171C42.7647 152.599 43.5435 152.593 44.1805 152.08L44.2388 152.119L43.6161 153.052L44.8951 153.906L48.631 148.308Z" fill="black"/>
<path d="M10.6322 95.3221C9.66266 95.4009 9.05476 94.8436 8.98601 93.9964C8.91868 93.1666 9.40741 92.6346 10.3114 92.5612L14.3379 92.2342L14.2096 90.6533L9.93856 91.0001C8.31835 91.1317 7.48877 92.1222 7.60182 93.5153C7.68546 94.546 8.2059 95.1631 8.99095 95.4115L8.99732 95.4901L5.62152 95.7642L5.74697 97.3102L14.6909 96.5839L14.5626 95.003L10.6322 95.3221Z" fill="black"/>
<path d="M14.2228 86.1576C14.2595 85.1023 13.7866 84.4546 13.2317 84.1459L13.2336 84.0934L14.1575 84.1255L14.2104 82.6017L9.70895 82.4452C7.93113 82.3834 7.34656 83.8142 7.30199 85.0972C7.25286 86.5116 7.84569 87.6195 9.05961 88.0124L9.32121 86.5397C8.8669 86.366 8.48832 85.9057 8.51524 85.1306C8.5408 84.395 8.93137 84.0052 9.59258 84.0282L9.61886 84.0291C10.0743 84.0449 10.0796 84.523 10.1653 85.7141C10.2601 87.0239 10.6065 88.2854 12.1216 88.3381C13.444 88.384 14.1783 87.4407 14.2228 86.1576ZM13.0723 85.7055C13.0494 86.3668 12.7308 86.8292 12.1484 86.8089C11.5397 86.7878 11.3042 86.2491 11.2281 85.5362C11.1856 85.1182 11.1094 84.2826 10.9502 84.071L11.7428 84.0986C12.4916 84.1246 13.1055 84.7509 13.0723 85.7055Z" fill="black"/>
<path d="M8.56461 72.7179L8.3123 74.3858L13.0233 76.6677L13.0128 76.737L7.83847 77.518L7.58551 79.1902L14.5982 77.8278L14.8603 76.0949L8.56461 72.7179Z" fill="black"/>
<path d="M16.4555 68.6898C16.8657 67.1758 16.4075 65.9348 15.3517 65.358L14.8037 66.7439C15.2974 67.1002 15.4474 67.6856 15.2687 68.3454C15.0006 69.335 14.1718 69.8139 13.0562 69.5251L14.282 65L13.8126 64.8727C11.5333 64.2548 10.1598 65.3534 9.72676 66.952C9.22266 68.8128 10.2598 70.3968 12.2643 70.9402C14.3026 71.4927 15.9251 70.6478 16.4555 68.6898ZM12.0255 69.2412C11.2092 68.9699 10.6776 68.1676 10.925 67.2541C11.1633 66.3744 11.9665 65.9566 12.8526 66.1878L12.0255 69.2412Z" fill="black"/>
<path d="M14.6976 53.2595L14.1443 54.4663L12.6788 53.794L12.0178 55.2358L13.4833 55.9081L13.0853 56.7764L14.2004 57.2879L14.5984 56.4197L17.9995 57.9799C19.1467 58.5158 20.0957 57.9388 20.5605 56.8408C20.7366 56.4251 20.7866 56.1058 20.806 55.9267L19.5676 55.6526C19.551 55.7414 19.512 55.9212 19.4298 56.1004C19.2637 56.4628 19.0029 56.6951 18.4215 56.4284L15.2594 54.9778L15.8127 53.771L14.6976 53.2595Z" fill="black"/>
<path d="M22.158 53.2591L22.929 51.873L17.0487 48.5997L16.2776 49.9858L22.158 53.2591ZM15.8307 48.8244C16.0756 48.384 15.939 47.8366 15.5255 47.6064C15.1082 47.3742 14.5711 47.5465 14.3262 47.9869C14.0791 48.431 14.2158 48.9785 14.6331 49.2108C15.0465 49.4409 15.5836 49.2685 15.8307 48.8244Z" fill="black"/>
<path d="M24.0812 49.3886L24.9999 48.0957L21.6647 45.7243C20.9898 45.2445 20.8525 44.4695 21.2484 43.9123C21.6367 43.3658 22.271 43.2523 22.8352 43.6535L26.3704 46.167L27.2714 44.8991L23.8504 42.4668C23.2327 42.0275 23.0656 41.355 23.5097 40.7299C23.8802 40.2085 24.4817 40.0125 25.1602 40.4949L28.6419 42.9704L29.5631 41.6739L25.8815 39.0562C24.6567 38.1854 23.5043 38.4305 22.7886 39.4377C22.2226 40.2341 22.184 41.1206 22.622 41.7976L22.5814 41.8548C21.8103 41.6237 21.0501 41.8842 20.5247 42.6236C20.0019 43.3593 19.9896 44.1785 20.4521 44.8514L20.4064 44.9157L19.4744 44.253L18.5963 45.4888L24.0812 49.3886Z" fill="black"/>
<path d="M32.6884 38.2868C33.7563 37.1379 33.9287 35.8262 33.263 34.8241L32.1328 35.7954C32.4037 36.3406 32.2639 36.9286 31.7986 37.4292C31.1005 38.1802 30.1441 38.2181 29.2914 37.4429L32.4833 34.009L32.1272 33.6778C30.3979 32.0693 28.6711 32.4019 27.5435 33.6149C26.2309 35.027 26.411 36.9119 27.9317 38.3264C29.4781 39.7648 31.3072 39.7727 32.6884 38.2868ZM28.5116 36.7115C27.9156 36.0913 27.8188 35.1336 28.4631 34.4404C29.0836 33.7729 29.9889 33.7772 30.6653 34.3945L28.5116 36.7115Z" fill="black"/>
<path d="M38.7057 23.4661L37.6526 24.2744L36.6713 22.995L35.413 23.9606L36.3943 25.2401L35.6366 25.8216L36.3832 26.795L37.1409 26.2135L39.4182 29.1826C40.1819 30.1926 41.2905 30.1261 42.2146 29.3727C42.5646 29.0875 42.7581 28.8286 42.859 28.6794L41.8923 27.8582C41.8361 27.9289 41.7176 28.0696 41.5612 28.1897C41.2449 28.4324 40.9058 28.5159 40.5165 28.0083L38.3992 25.2478L39.4524 24.4396L38.7057 23.4661Z" fill="black"/>
<path d="M47.3145 25.787C48.9894 24.7467 49.3214 22.9054 48.2238 21.1372C47.1239 19.3652 45.3246 18.8425 43.6497 19.8828C41.9747 20.9231 41.645 22.768 42.7449 24.54C43.8425 26.3083 45.6395 26.8272 47.3145 25.787ZM46.6518 24.7028C45.725 25.2784 44.7579 24.734 44.1086 23.6879C43.4593 22.6418 43.3935 21.5222 44.3203 20.9466C45.2322 20.3802 46.2062 20.9358 46.8555 21.9818C47.5048 23.0279 47.5637 24.1364 46.6518 24.7028Z" fill="black"/>
<path d="M57.0042 23.0191L58.4807 22.4396L57.1717 19.1031L57.2329 19.079C57.6446 19.4446 58.3812 19.8945 59.4579 19.4718C60.9343 18.8922 61.5803 17.2877 60.7707 15.2238C59.9514 13.1354 58.3686 12.4482 56.9207 13.0166C55.8154 13.4505 55.6154 14.2962 55.5687 14.837L55.483 14.8707L55.0766 13.8346L53.6246 14.4046L57.0042 23.0191ZM56.3015 16.9688C55.8246 15.7533 56.0378 14.7611 56.9881 14.3881C57.971 14.0023 58.8048 14.6399 59.2625 15.8064C59.7233 16.9812 59.5455 18.0394 58.5707 18.4221C57.6286 18.7919 56.7783 18.1843 56.3015 16.9688Z" fill="black"/>
<path d="M64.1203 17.5888L65.648 17.1622L64.5845 13.3513C64.3549 12.5284 64.8127 11.7728 65.6525 11.5383C65.9099 11.4664 66.2436 11.4232 66.3862 11.4289L65.994 10.0236C65.8477 10.0371 65.6024 10.0874 65.4336 10.1346C64.6909 10.342 64.1883 10.9372 64.1616 11.7544L64.0941 11.7733L63.7926 10.6929L62.3113 11.1065L64.1203 17.5888Z" fill="black"/>
<path d="M72.6029 15.5817C74.148 15.3114 75.0776 14.3704 75.1523 13.1697L73.6648 13.2609C73.5514 13.859 73.0848 14.2431 72.4116 14.3608C71.4016 14.5375 70.6164 13.9898 70.4048 12.857L75.023 12.0492L74.9392 11.5701C74.5322 9.24382 72.9549 8.46554 71.3234 8.75091C69.4244 9.08309 68.4296 10.6938 68.7875 12.7396C69.1514 14.8199 70.6046 15.9313 72.6029 15.5817ZM70.2249 11.8032C70.1244 10.9489 70.6257 10.1273 71.5579 9.96424C72.4557 9.80721 73.1747 10.3575 73.3411 11.2581L70.2249 11.8032Z" fill="black"/>
<path d="M81.5636 9.8964L77.5336 10.1767L77.6242 11.4792L81.6542 11.1989L81.5636 9.8964Z" fill="black"/>
<path d="M87.9498 14.2656C89.92 14.3417 91.2258 13.0021 91.3061 10.9225C91.3865 8.83842 90.1881 7.39778 88.2179 7.32171C86.2477 7.24564 84.9418 8.58958 84.8613 10.6736C84.781 12.7533 85.9796 14.1896 87.9498 14.2656ZM88.0076 12.9963C86.9174 12.9542 86.4208 11.9616 86.4683 10.7313C86.5158 9.501 87.088 8.53652 88.1781 8.57861C89.2508 8.62003 89.7469 9.62576 89.6994 10.856C89.6519 12.0863 89.0802 13.0377 88.0076 12.9963Z" fill="black"/>
<path d="M93.5999 14.4133L95.1708 14.6325L95.7177 10.714C95.8358 9.86782 96.5573 9.35801 97.4209 9.47853C97.6856 9.51548 98.0087 9.60924 98.1372 9.67141L98.3389 8.22637C98.1993 8.18035 97.9544 8.12847 97.7808 8.10424C97.0171 7.99765 96.3186 8.34256 95.9678 9.08107L95.8983 9.07138L96.0534 7.96048L94.5302 7.7479L93.5999 14.4133Z" fill="black"/>
<path d="M101.798 15.8484C102.922 16.1211 103.591 15.5756 103.949 15.1576L104.043 15.1803L103.793 16.2107L105.309 16.5785L107.425 7.85823L105.879 7.4832L105.088 10.7448L105.024 10.7293C104.904 10.1998 104.592 9.38905 103.438 9.10906C101.926 8.7423 100.451 9.63776 99.9218 11.8178C99.399 13.9724 100.256 15.4744 101.798 15.8484ZM102.535 14.6881C101.517 14.4412 101.198 13.4168 101.495 12.1905C101.791 10.9728 102.53 10.228 103.557 10.477C104.549 10.7177 104.894 11.6717 104.586 12.9406C104.278 14.2095 103.518 14.9268 102.535 14.6881Z" fill="black"/>
<path d="M110.484 18.3324C111.954 18.8781 113.232 18.5342 113.901 17.5348L112.571 16.8635C112.171 17.3229 111.575 17.4193 110.934 17.1816C109.973 16.8249 109.571 15.956 109.959 14.871L114.354 16.5019L114.523 16.0459C115.345 13.8316 114.375 12.3641 112.822 11.788C111.014 11.1173 109.343 12.0068 108.621 13.954C107.887 15.9341 108.582 17.6267 110.484 18.3324ZM110.335 13.8701C110.679 13.0817 111.526 12.6248 112.413 12.9541C113.267 13.2711 113.611 14.109 113.301 14.9706L110.335 13.8701Z" fill="black"/>
<path d="M115.678 20.193L117.102 20.8916L118.843 17.3391C119.22 16.5719 120.064 16.3127 120.847 16.6968C121.087 16.8145 121.365 17.0044 121.467 17.1036L122.11 15.7935C121.991 15.7063 121.775 15.5805 121.617 15.5033C120.925 15.1637 120.154 15.2734 119.59 15.8656L119.527 15.8347L120.021 14.8276L118.641 14.1502L115.678 20.193Z" fill="black"/>
<path d="M55.2858 70.3449H59.3212C59.306 67.2956 56.9546 65.278 53.1923 65.278C49.4983 65.278 46.889 67.2653 46.9117 70.2235C46.9041 72.6508 48.5881 74.001 51.3415 74.5926L52.8889 74.9264C54.6183 75.3056 55.21 75.738 55.2251 76.4434C55.21 77.2095 54.5121 77.7481 53.162 77.7481C51.5463 77.7481 50.5906 76.9896 50.5223 75.5635H46.5173C46.5325 79.4623 49.1721 81.2069 53.2226 81.2069C57.1594 81.2069 59.5184 79.5079 59.5335 76.4434C59.5184 74.0768 58.1075 72.4157 54.679 71.6799L53.4047 71.4068C51.9332 71.0958 51.2732 70.6635 51.3112 69.9201C51.3187 69.2375 51.8876 68.7368 53.1923 68.7368C54.5576 68.7368 55.2024 69.3361 55.2858 70.3449ZM64.0178 81.2069C65.5348 81.2069 66.6802 80.6912 67.3856 79.3865H67.4766V81.0249H71.3906V73.0452C71.3906 70.891 69.3502 69.2223 66.0203 69.2223C62.5387 69.2223 60.8244 71.0427 60.6803 73.1666H64.5336C64.6322 72.446 65.1632 72.1047 65.9596 72.1047C66.6878 72.1047 67.2036 72.4384 67.2036 73.0452V73.0756C67.2036 73.7507 66.4602 73.9631 64.5032 74.1072C62.0987 74.2816 60.2252 75.2525 60.2252 77.8088C60.2252 80.1298 61.7877 81.2069 64.0178 81.2069ZM65.3831 78.5673C64.6701 78.5673 64.1695 78.2184 64.1695 77.566C64.1695 76.9668 64.5943 76.5041 65.5652 76.3524C66.2327 76.2462 66.794 76.1097 67.2339 75.9276V76.8985C67.2339 77.9605 66.3313 78.5673 65.3831 78.5673ZM77.1511 65.4904H72.964V81.0249H77.1511V65.4904ZM84.4399 81.2373C87.6713 81.2373 89.7496 79.6899 90.144 77.2626H86.3211C86.0784 77.9225 85.3881 78.2942 84.531 78.2942C83.287 78.2942 82.5588 77.475 82.5588 76.3524V76.1704H90.144V75.1994C90.144 71.4903 87.8685 69.2223 84.3489 69.2223C80.7384 69.2223 78.4324 71.6192 78.4324 75.2298C78.4324 78.9996 80.708 81.2373 84.4399 81.2373ZM82.5588 73.8644C82.5816 72.8556 83.4159 72.1654 84.4399 72.1654C85.4791 72.1654 86.268 72.8632 86.2907 73.8644H82.5588ZM102.075 73.1666C101.969 70.7014 99.9209 69.2223 96.553 69.2223C93.2231 69.2223 91.1675 70.5876 91.1827 73.0149C91.1675 74.8505 92.3584 76.0262 94.7326 76.4434L96.7958 76.8075C97.706 76.9744 98.1156 77.2171 98.1308 77.6571C98.1156 78.1425 97.5619 78.4156 96.7958 78.4156C95.8476 78.4156 95.1801 78.006 95.0663 77.2626H90.9096C91.1372 79.652 93.2004 81.2373 96.7654 81.2373C99.9891 81.2373 102.363 79.6671 102.378 77.1716C102.363 75.4498 101.21 74.4485 98.8286 74.0162L96.462 73.5914C95.5745 73.4321 95.3242 73.1135 95.3394 72.7722C95.3242 72.2867 95.9235 72.0137 96.644 72.0137C97.4708 72.0137 98.1611 72.4536 98.2218 73.1666H102.075ZM107.384 81.0249H111.571V69.374H107.384V81.0249ZM109.477 68.1604C110.615 68.1604 111.54 67.3032 111.54 66.2489C111.54 65.1945 110.615 64.3374 109.477 64.3374C108.339 64.3374 107.414 65.1945 107.414 66.2489C107.414 67.3032 108.339 68.1604 109.477 68.1604ZM117.464 74.4713C117.471 73.3183 118.124 72.6205 119.163 72.6205C120.217 72.6205 120.839 73.3183 120.832 74.4713V81.0249H125.019V73.5914C125.026 71.0579 123.426 69.2223 120.953 69.2223C119.239 69.2223 117.881 70.1173 117.373 71.5889H117.252V69.374H113.277V81.0249H117.464V74.4713ZM48.7604 88.4904H44.543V96.6217H44.4216L38.8996 88.4904H35.3193V104.025H39.5367V95.8632H39.6278L45.2408 104.025H48.7604V88.4904ZM56.0018 104.237C59.7944 104.237 62.0397 101.81 62.0397 98.2298C62.0397 94.6496 59.7944 92.2223 56.0018 92.2223C52.2092 92.2223 49.964 94.6496 49.964 98.2298C49.964 101.81 52.2092 104.237 56.0018 104.237ZM56.0322 101.143C54.9096 101.143 54.2421 100.027 54.2421 98.1994C54.2421 96.3714 54.9096 95.2564 56.0322 95.2564C57.0941 95.2564 57.7616 96.3714 57.7616 98.1994C57.7616 100.027 57.0941 101.143 56.0322 101.143ZM74.6989 92.374H70.2995L68.4183 100.081H68.297L66.4158 92.374H62.0164L65.9304 104.025H70.7849L74.6989 92.374ZM80.6907 104.237C83.922 104.237 86.0003 102.69 86.3948 100.263H82.5718C82.3291 100.923 81.6388 101.294 80.7817 101.294C79.5377 101.294 78.8095 100.475 78.8095 99.3524V99.1704H86.3948V98.1994C86.3948 94.4903 84.1192 92.2223 80.5997 92.2223C76.9891 92.2223 74.6832 94.6192 74.6832 98.2298C74.6832 102 76.9588 104.237 80.6907 104.237ZM78.8095 96.8644C78.8323 95.8556 79.6667 95.1654 80.6907 95.1654C81.7299 95.1654 82.5187 95.8632 82.5415 96.8644H78.8095ZM87.6761 104.025H91.8632V97.2285C91.8632 96.2121 92.3942 95.5901 93.2589 95.5901C94.1236 95.5901 94.6849 96.2121 94.6849 97.2285V104.025H98.6899V97.2285C98.6899 96.2121 99.2209 95.5901 100.086 95.5901C100.95 95.5901 101.512 96.2121 101.512 97.2285V104.025H105.699V96.1666C105.699 93.7773 104.166 92.2223 101.936 92.2223C100.207 92.2223 98.8113 93.1629 98.4168 94.5889H98.2955C98.0527 93.1629 96.7481 92.2223 95.1097 92.2223C93.494 92.2223 92.2576 93.1325 91.7722 94.5889H91.6508V92.374H87.6761V104.025ZM107.276 104.025H111.433V102.113H111.524C112.009 103.297 113.132 104.177 114.77 104.177C117.258 104.177 119.352 102.235 119.352 98.1994C119.352 93.9821 117.106 92.2223 114.8 92.2223C113.071 92.2223 111.979 93.2235 111.524 94.4068H111.463V88.4904H107.276V104.025ZM111.372 98.1994C111.372 96.47 112.07 95.4384 113.223 95.4384C114.376 95.4384 115.043 96.47 115.043 98.1994C115.043 99.9289 114.376 100.96 113.223 100.96C112.07 100.96 111.372 99.8985 111.372 98.1994ZM126.259 104.237C129.491 104.237 131.569 102.69 131.963 100.263H128.14C127.898 100.923 127.207 101.294 126.35 101.294C125.106 101.294 124.378 100.475 124.378 99.3524V99.1704H131.963V98.1994C131.963 94.4903 129.688 92.2223 126.168 92.2223C122.558 92.2223 120.252 94.6192 120.252 98.2298C120.252 102 122.527 104.237 126.259 104.237ZM124.378 96.8644C124.401 95.8556 125.235 95.1654 126.259 95.1654C127.298 95.1654 128.087 95.8632 128.11 96.8644H124.378ZM133.245 104.025H137.432V97.9567C137.432 96.6217 138.35 95.7418 139.586 95.7418C140.018 95.7418 140.716 95.8101 141.133 95.9542V92.3816C140.8 92.283 140.435 92.2223 140.071 92.2223C138.827 92.2223 137.857 92.9505 137.432 94.5889H137.31V92.374H133.245V104.025Z" fill="url(#paint1_linear_1_138)"/>
<defs>
<radialGradient id="paint0_angular_1_138" cx="0" cy="0" r="1" gradientUnits="userSpaceOnUse" gradientTransform="translate(86.0032 87.0294) rotate(-28.6659) scale(189.765 189.796)">
<stop offset="0.055953" stop-color="#B8FF41"/>
<stop offset="0.123516" stop-color="#BAFF43"/>
<stop offset="0.167081" stop-color="#BAFF43"/>
<stop offset="0.228764" stop-color="#BAFF43"/>
<stop offset="0.301658" stop-color="#BAFF43"/>
<stop offset="0.482335" stop-color="#92E10B"/>
<stop offset="0.661458" stop-color="#BAFF43"/>
<stop offset="0.77936" stop-color="#BAFF43"/>
<stop offset="0.828125" stop-color="#BAFF43"/>
<stop offset="0.931728" stop-color="#92E10B"/>
</radialGradient>
<linearGradient id="paint1_linear_1_138" x1="136.692" y1="99.4127" x2="45.1032" y2="56.7376" gradientUnits="userSpaceOnUse">
<stop/>
<stop offset="0.729167" stop-color="#060606"/>
<stop offset="1"/>
</linearGradient>
</defs>
</svg>
